<svg xmlns="http://www.w3.org/2000/svg" width="1024" height="1024" viewBox="0 0 1024 1024">
<defs>
  <linearGradient id="copperGrad" x1="0" y1="0" x2="1" y2="1">
    <stop offset="0%" stop-color="#f4c36c"/>
    <stop offset="55%" stop-color="#c97a2b"/>
    <stop offset="100%" stop-color="#8f4d17"/>
  </linearGradient>
</defs>
<g fill="none" stroke-linecap="round" stroke-linejoin="round">
<path d="M 392 302 L 392 237 L 357 172 L 357 120" stroke="#1a0f08" stroke-width="24"/>
<path d="M 427 302 L 427 237 L 402 172 L 402 95" stroke="#1a0f08" stroke-width="24"/>
<path d="M 462 302 L 462 237 L 447 172 L 447 80" stroke="#1a0f08" stroke-width="24"/>
<path d="M 497 302 L 497 237 L 489 172 L 489 110" stroke="#1a0f08" stroke-width="24"/>
<path d="M 532 302 L 532 237 L 540 172 L 540 90" stroke="#1a0f08" stroke-width="24"/>
<path d="M 567 302 L 567 237 L 582 172 L 582 80" stroke="#1a0f08" stroke-width="24"/>
<path d="M 602 302 L 602 237 L 627 172 L 627 100" stroke="#1a0f08" stroke-width="24"/>
<path d="M 637 302 L 637 237 L 672 172 L 672 125" stroke="#1a0f08" stroke-width="24"/>
<path d="M 392 722 L 392 787 L 357 852 L 357 904" stroke="#1a0f08" stroke-width="24"/>
<path d="M 427 722 L 427 787 L 402 852 L 402 929" stroke="#1a0f08" stroke-width="24"/>
<path d="M 462 722 L 462 787 L 447 852 L 447 944" stroke="#1a0f08" stroke-width="24"/>
<path d="M 497 722 L 497 787 L 489 852 L 489 914" stroke="#1a0f08" stroke-width="24"/>
<path d="M 532 722 L 532 787 L 540 852 L 540 934" stroke="#1a0f08" stroke-width="24"/>
<path d="M 567 722 L 567 787 L 582 852 L 582 944" stroke="#1a0f08" stroke-width="24"/>
<path d="M 602 722 L 602 787 L 627 852 L 627 924" stroke="#1a0f08" stroke-width="24"/>
<path d="M 637 722 L 637 787 L 672 852 L 672 899" stroke="#1a0f08" stroke-width="24"/>
<path d="M 302 392 L 237 392 L 172 357 L 120 357" stroke="#1a0f08" stroke-width="24"/>
<path d="M 302 427 L 237 427 L 172 402 L 95 402" stroke="#1a0f08" stroke-width="24"/>
<path d="M 302 462 L 237 462 L 172 447 L 80 447" stroke="#1a0f08" stroke-width="24"/>
<path d="M 302 497 L 237 497 L 172 489 L 110 489" stroke="#1a0f08" stroke-width="24"/>
<path d="M 302 532 L 237 532 L 172 540 L 90 540" stroke="#1a0f08" stroke-width="24"/>
<path d="M 302 567 L 237 567 L 172 582 L 80 582" stroke="#1a0f08" stroke-width="24"/>
<path d="M 302 602 L 237 602 L 172 627 L 100 627" stroke="#1a0f08" stroke-width="24"/>
<path d="M 302 637 L 237 637 L 172 672 L 125 672" stroke="#1a0f08" stroke-width="24"/>
<path d="M 722 392 L 787 392 L 852 357 L 904 357" stroke="#1a0f08" stroke-width="24"/>
<path d="M 722 427 L 787 427 L 852 402 L 929 402" stroke="#1a0f08" stroke-width="24"/>
<path d="M 722 462 L 787 462 L 852 447 L 944 447" stroke="#1a0f08" stroke-width="24"/>
<path d="M 722 497 L 787 497 L 852 489 L 914 489" stroke="#1a0f08" stroke-width="24"/>
<path d="M 722 532 L 787 532 L 852 540 L 934 540" stroke="#1a0f08" stroke-width="24"/>
<path d="M 722 567 L 787 567 L 852 582 L 944 582" stroke="#1a0f08" stroke-width="24"/>
<path d="M 722 602 L 787 602 L 852 627 L 924 627" stroke="#1a0f08" stroke-width="24"/>
<path d="M 722 637 L 787 637 L 852 672 L 899 672" stroke="#1a0f08" stroke-width="24"/>
<path d="M 392 302 L 392 237 L 357 172 L 357 120" stroke="url(#copperGrad)" stroke-width="14"/>
<path d="M 427 302 L 427 237 L 402 172 L 402 95" stroke="url(#copperGrad)" stroke-width="14"/>
<path d="M 462 302 L 462 237 L 447 172 L 447 80" stroke="url(#copperGrad)" stroke-width="14"/>
<path d="M 497 302 L 497 237 L 489 172 L 489 110" stroke="url(#copperGrad)" stroke-width="14"/>
<path d="M 532 302 L 532 237 L 540 172 L 540 90" stroke="url(#copperGrad)" stroke-width="14"/>
<path d="M 567 302 L 567 237 L 582 172 L 582 80" stroke="url(#copperGrad)" stroke-width="14"/>
<path d="M 602 302 L 602 237 L 627 172 L 627 100" stroke="url(#copperGrad)" stroke-width="14"/>
<path d="M 637 302 L 637 237 L 672 172 L 672 125" stroke="url(#copperGrad)" stroke-width="14"/>
<path d="M 392 722 L 392 787 L 357 852 L 357 904" stroke="url(#copperGrad)" stroke-width="14"/>
<path d="M 427 722 L 427 787 L 402 852 L 402 929" stroke="url(#copperGrad)" stroke-width="14"/>
<path d="M 462 722 L 462 787 L 447 852 L 447 944" stroke="url(#copperGrad)" stroke-width="14"/>
<path d="M 497 722 L 497 787 L 489 852 L 489 914" stroke="url(#copperGrad)" stroke-width="14"/>
<path d="M 532 722 L 532 787 L 540 852 L 540 934" stroke="url(#copperGrad)" stroke-width="14"/>
<path d="M 567 722 L 567 787 L 582 852 L 582 944" stroke="url(#copperGrad)" stroke-width="14"/>
<path d="M 602 722 L 602 787 L 627 852 L 627 924" stroke="url(#copperGrad)" stroke-width="14"/>
<path d="M 637 722 L 637 787 L 672 852 L 672 899" stroke="url(#copperGrad)" stroke-width="14"/>
<path d="M 302 392 L 237 392 L 172 357 L 120 357" stroke="url(#copperGrad)" stroke-width="14"/>
<path d="M 302 427 L 237 427 L 172 402 L 95 402" stroke="url(#copperGrad)" stroke-width="14"/>
<path d="M 302 462 L 237 462 L 172 447 L 80 447" stroke="url(#copperGrad)" stroke-width="14"/>
<path d="M 302 497 L 237 497 L 172 489 L 110 489" stroke="url(#copperGrad)" stroke-width="14"/>
<path d="M 302 532 L 237 532 L 172 540 L 90 540" stroke="url(#copperGrad)" stroke-width="14"/>
<path d="M 302 567 L 237 567 L 172 582 L 80 582" stroke="url(#copperGrad)" stroke-width="14"/>
<path d="M 302 602 L 237 602 L 172 627 L 100 627" stroke="url(#copperGrad)" stroke-width="14"/>
<path d="M 302 637 L 237 637 L 172 672 L 125 672" stroke="url(#copperGrad)" stroke-width="14"/>
<path d="M 722 392 L 787 392 L 852 357 L 904 357" stroke="url(#copperGrad)" stroke-width="14"/>
<path d="M 722 427 L 787 427 L 852 402 L 929 402" stroke="url(#copperGrad)" stroke-width="14"/>
<path d="M 722 462 L 787 462 L 852 447 L 944 447" stroke="url(#copperGrad)" stroke-width="14"/>
<path d="M 722 497 L 787 497 L 852 489 L 914 489" stroke="url(#copperGrad)" stroke-width="14"/>
<path d="M 722 532 L 787 532 L 852 540 L 934 540" stroke="url(#copperGrad)" stroke-width="14"/>
<path d="M 722 567 L 787 567 L 852 582 L 944 582" stroke="url(#copperGrad)" stroke-width="14"/>
<path d="M 722 602 L 787 602 L 852 627 L 924 627" stroke="url(#copperGrad)" stroke-width="14"/>
<path d="M 722 637 L 787 637 L 852 672 L 899 672" stroke="url(#copperGrad)" stroke-width="14"/>
<circle cx="357" cy="120" r="18" fill="#1a0f08"/>
<circle cx="402" cy="95" r="18" fill="#1a0f08"/>
<circle cx="447" cy="80" r="18" fill="#1a0f08"/>
<circle cx="489" cy="110" r="18" fill="#1a0f08"/>
<circle cx="540" cy="90" r="18" fill="#1a0f08"/>
<circle cx="582" cy="80" r="18" fill="#1a0f08"/>
<circle cx="627" cy="100" r="18" fill="#1a0f08"/>
<circle cx="672" cy="125" r="18" fill="#1a0f08"/>
<circle cx="357" cy="904" r="18" fill="#1a0f08"/>
<circle cx="402" cy="929" r="18" fill="#1a0f08"/>
<circle cx="447" cy="944" r="18" fill="#1a0f08"/>
<circle cx="489" cy="914" r="18" fill="#1a0f08"/>
<circle cx="540" cy="934" r="18" fill="#1a0f08"/>
<circle cx="582" cy="944" r="18" fill="#1a0f08"/>
<circle cx="627" cy="924" r="18" fill="#1a0f08"/>
<circle cx="672" cy="899" r="18" fill="#1a0f08"/>
<circle cx="120" cy="357" r="18" fill="#1a0f08"/>
<circle cx="95" cy="402" r="18" fill="#1a0f08"/>
<circle cx="80" cy="447" r="18" fill="#1a0f08"/>
<circle cx="110" cy="489" r="18" fill="#1a0f08"/>
<circle cx="90" cy="540" r="18" fill="#1a0f08"/>
<circle cx="80" cy="582" r="18" fill="#1a0f08"/>
<circle cx="100" cy="627" r="18" fill="#1a0f08"/>
<circle cx="125" cy="672" r="18" fill="#1a0f08"/>
<circle cx="904" cy="357" r="18" fill="#1a0f08"/>
<circle cx="929" cy="402" r="18" fill="#1a0f08"/>
<circle cx="944" cy="447" r="18" fill="#1a0f08"/>
<circle cx="914" cy="489" r="18" fill="#1a0f08"/>
<circle cx="934" cy="540" r="18" fill="#1a0f08"/>
<circle cx="944" cy="582" r="18" fill="#1a0f08"/>
<circle cx="924" cy="627" r="18" fill="#1a0f08"/>
<circle cx="899" cy="672" r="18" fill="#1a0f08"/>
<circle cx="357" cy="120" r="11" fill="#f4c36c"/>
<circle cx="402" cy="95" r="11" fill="#f4c36c"/>
<circle cx="447" cy="80" r="11" fill="#f4c36c"/>
<circle cx="489" cy="110" r="11" fill="#f4c36c"/>
<circle cx="540" cy="90" r="11" fill="#f4c36c"/>
<circle cx="582" cy="80" r="11" fill="#f4c36c"/>
<circle cx="627" cy="100" r="11" fill="#f4c36c"/>
<circle cx="672" cy="125" r="11" fill="#f4c36c"/>
<circle cx="357" cy="904" r="11" fill="#f4c36c"/>
<circle cx="402" cy="929" r="11" fill="#f4c36c"/>
<circle cx="447" cy="944" r="11" fill="#f4c36c"/>
<circle cx="489" cy="914" r="11" fill="#f4c36c"/>
<circle cx="540" cy="934" r="11" fill="#f4c36c"/>
<circle cx="582" cy="944" r="11" fill="#f4c36c"/>
<circle cx="627" cy="924" r="11" fill="#f4c36c"/>
<circle cx="672" cy="899" r="11" fill="#f4c36c"/>
<circle cx="120" cy="357" r="11" fill="#f4c36c"/>
<circle cx="95" cy="402" r="11" fill="#f4c36c"/>
<circle cx="80" cy="447" r="11" fill="#f4c36c"/>
<circle cx="110" cy="489" r="11" fill="#f4c36c"/>
<circle cx="90" cy="540" r="11" fill="#f4c36c"/>
<circle cx="80" cy="582" r="11" fill="#f4c36c"/>
<circle cx="100" cy="627" r="11" fill="#f4c36c"/>
<circle cx="125" cy="672" r="11" fill="#f4c36c"/>
<circle cx="904" cy="357" r="11" fill="#f4c36c"/>
<circle cx="929" cy="402" r="11" fill="#f4c36c"/>
<circle cx="944" cy="447" r="11" fill="#f4c36c"/>
<circle cx="914" cy="489" r="11" fill="#f4c36c"/>
<circle cx="934" cy="540" r="11" fill="#f4c36c"/>
<circle cx="944" cy="582" r="11" fill="#f4c36c"/>
<circle cx="924" cy="627" r="11" fill="#f4c36c"/>
<circle cx="899" cy="672" r="11" fill="#f4c36c"/>
<circle cx="450.75" cy="310" r="12" fill="#1a0f08"/>
<circle cx="450.75" cy="310" r="7" fill="#f4c36c"/>
<circle cx="450.75" cy="714" r="12" fill="#1a0f08"/>
<circle cx="450.75" cy="714" r="7" fill="#f4c36c"/>
<circle cx="471.75" cy="310" r="12" fill="#1a0f08"/>
<circle cx="471.75" cy="310" r="7" fill="#f4c36c"/>
<circle cx="471.75" cy="714" r="12" fill="#1a0f08"/>
<circle cx="471.75" cy="714" r="7" fill="#f4c36c"/>
<circle cx="492.75" cy="310" r="12" fill="#1a0f08"/>
<circle cx="492.75" cy="310" r="7" fill="#f4c36c"/>
<circle cx="492.75" cy="714" r="12" fill="#1a0f08"/>
<circle cx="492.75" cy="714" r="7" fill="#f4c36c"/>
<circle cx="513.75" cy="310" r="12" fill="#1a0f08"/>
<circle cx="513.75" cy="310" r="7" fill="#f4c36c"/>
<circle cx="513.75" cy="714" r="12" fill="#1a0f08"/>
<circle cx="513.75" cy="714" r="7" fill="#f4c36c"/>
<circle cx="534.75" cy="310" r="12" fill="#1a0f08"/>
<circle cx="534.75" cy="310" r="7" fill="#f4c36c"/>
<circle cx="534.75" cy="714" r="12" fill="#1a0f08"/>
<circle cx="534.75" cy="714" r="7" fill="#f4c36c"/>
<circle cx="555.75" cy="310" r="12" fill="#1a0f08"/>
<circle cx="555.75" cy="310" r="7" fill="#f4c36c"/>
<circle cx="555.75" cy="714" r="12" fill="#1a0f08"/>
<circle cx="555.75" cy="714" r="7" fill="#f4c36c"/>
<circle cx="576.75" cy="310" r="12" fill="#1a0f08"/>
<circle cx="576.75" cy="310" r="7" fill="#f4c36c"/>
<circle cx="576.75" cy="714" r="12" fill="#1a0f08"/>
<circle cx="576.75" cy="714" r="7" fill="#f4c36c"/>
<circle cx="310" cy="450.75" r="12" fill="#1a0f08"/>
<circle cx="310" cy="450.75" r="7" fill="#f4c36c"/>
<circle cx="714" cy="450.75" r="12" fill="#1a0f08"/>
<circle cx="714" cy="450.75" r="7" fill="#f4c36c"/>
<circle cx="310" cy="471.75" r="12" fill="#1a0f08"/>
<circle cx="310" cy="471.75" r="7" fill="#f4c36c"/>
<circle cx="714" cy="471.75" r="12" fill="#1a0f08"/>
<circle cx="714" cy="471.75" r="7" fill="#f4c36c"/>
<circle cx="310" cy="492.75" r="12" fill="#1a0f08"/>
<circle cx="310" cy="492.75" r="7" fill="#f4c36c"/>
<circle cx="714" cy="492.75" r="12" fill="#1a0f08"/>
<circle cx="714" cy="492.75" r="7" fill="#f4c36c"/>
<circle cx="310" cy="513.75" r="12" fill="#1a0f08"/>
<circle cx="310" cy="513.75" r="7" fill="#f4c36c"/>
<circle cx="714" cy="513.75" r="12" fill="#1a0f08"/>
<circle cx="714" cy="513.75" r="7" fill="#f4c36c"/>
<circle cx="310" cy="534.75" r="12" fill="#1a0f08"/>
<circle cx="310" cy="534.75" r="7" fill="#f4c36c"/>
<circle cx="714" cy="534.75" r="12" fill="#1a0f08"/>
<circle cx="714" cy="534.75" r="7" fill="#f4c36c"/>
<circle cx="310" cy="555.75" r="12" fill="#1a0f08"/>
<circle cx="310" cy="555.75" r="7" fill="#f4c36c"/>
<circle cx="714" cy="555.75" r="12" fill="#1a0f08"/>
<circle cx="714" cy="555.75" r="7" fill="#f4c36c"/>
<circle cx="310" cy="576.75" r="12" fill="#1a0f08"/>
<circle cx="310" cy="576.75" r="7" fill="#f4c36c"/>
<circle cx="714" cy="576.75" r="12" fill="#1a0f08"/>
<circle cx="714" cy="576.75" r="7" fill="#f4c36c"/>
</g>
<rect x="302" y="302" width="420" height="420" rx="70" fill="#0c0c0f"/>
<rect x="330" y="330" width="364" height="364" rx="34" fill="#ffffff"/>
<rect x="342" y="342" width="340" height="340" rx="26" fill="#050505"/>
<text x="512" y="622" text-anchor="middle"
font-family="Arial, Arimo, Liberation Sans, DejaVu Sans, sans-serif"
font-size="300" font-weight="700" fill="#ffffff">R</text>
</svg>